<?xml version="1.0" standalone="no"?><!DOCTYPE svg PUBLIC "-//W3C//DTD SVG 1.1//EN" "http://www.w3.org/Graphics/SVG/1.1/DTD/svg11.dtd"><svg class="icon" width="64px" height="64.00px" viewBox="0 0 1024 1024" version="1.1" xmlns="http://www.w3.org/2000/svg"><path fill="#ffffff" d="M941.6 219.6L805.7 83.3c-13.3-13.4-31.6-21-50.7-21.3-19.1-0.2-37.5 6.9-51.2 20L161.5 625.8c-4.1 4.2-5 5-6.6 8.8l-2.5 6.3-3.7 10.7-13.7 41.8-27.2 84.6-44.1 138.3c-8.4 26.5 16.2 51.2 43.1 44.6l45.6-14.5 173.5-56 47.3-15.6 9.5-3.3c1.4-0.5 2.5-0.9 3.5-1.3l4.1-1.7c3.8-1.6 4.6-2.5 8.7-6.4l542.6-544.3c27.2-27.3 27.2-70.8 0-98.2zM353.4 807l-29.5 9.9-99.3 32.2-71.4 23L200 726.2l16.3-49.7 2.4-6.9L598 288.9l137.7 134.6L353.4 807zM786 373L648.3 238.4l105.7-106 135.9 136.4L786 373zM868.2 856.3H516.9c-12.4 0-22.5 10.1-22.5 22.5v25.4c0 12.4 10.1 22.5 22.5 22.5h351.3c12.4 0 22.5-10.1 22.5-22.5v-25.4c0-12.4-10.1-22.5-22.5-22.5z" /></svg>