<?xml version="1.0" standalone="no"?><!DOCTYPE svg PUBLIC "-//W3C//DTD SVG 1.1//EN" "http://www.w3.org/Graphics/SVG/1.1/DTD/svg11.dtd"><svg class="icon" width="64px" height="64.00px" viewBox="0 0 1024 1024" version="1.1" xmlns="http://www.w3.org/2000/svg"><path fill="#ffffff" d="M227.968 819.2H473.6l-41.632-62.464H227.968A38.4 38.4 0 0 1 189.76 718.08V229.088a38.4 38.4 0 0 1 38.208-38.624h414.464A38.4 38.4 0 0 1 680.64 229.12v212.32l61.76 11.232V229.12C742.4 173.44 697.504 128 642.432 128H227.968C172.896 128 128 173.408 128 229.12v488.96c0 55.712 44.896 101.12 99.968 101.12zM688.16 896a208.128 208.128 0 0 1-207.84-207.904 207.968 207.968 0 0 1 207.84-207.776A208.064 208.064 0 0 1 896 688.224 208 208 0 0 1 688.16 896z m0-352.608a144.96 144.96 0 0 0-144.768 144.832 144.96 144.96 0 0 0 144.768 144.832 144.96 144.96 0 0 0 144.8-144.832 145.024 145.024 0 0 0-144.8-144.832z m-93.824-192.32H287.52A31.488 31.488 0 0 1 256 319.52C256 302.08 270.08 288 287.52 288h306.816a31.552 31.552 0 0 1 0 63.04z m-94.976 141.024h-211.84A31.488 31.488 0 0 1 256 460.576c0-17.44 14.08-31.52 31.52-31.52h211.84c17.44 0 31.52 14.08 31.52 31.52 0 17.44-14.08 31.52-31.52 31.52z m-110.88 141.056H287.552A31.488 31.488 0 0 1 256 601.6c0-17.44 14.08-31.52 31.52-31.52h100.96a31.552 31.552 0 0 1 0 63.04zM742.464 736H672v-124.96c0-19.392 11.392-35.04 25.536-35.04 14.112 0 25.536 15.68 25.536 35.04v54.88h19.392c14.144 0 25.536 15.68 25.536 35.04 0 19.392-11.392 35.04-25.536 35.04z" /></svg>