<?xml version="1.0" standalone="no"?><!DOCTYPE svg PUBLIC "-//W3C//DTD SVG 1.1//EN" "http://www.w3.org/Graphics/SVG/1.1/DTD/svg11.dtd"><svg class="icon" width="64px" height="64.00px" viewBox="0 0 1024 1024" version="1.1" xmlns="http://www.w3.org/2000/svg"><path fill="#ffffff" d="M666.428952 121.904762a48.761905 48.761905 0 0 1 45.007238 67.535238l-79.652571 190.902857h130.364952a48.761905 48.761905 0 0 1 37.936762 79.408762L450.096762 893.415619a48.761905 48.761905 0 0 1-85.74781-40.252952l46.567619-231.277715h-156.696381a48.761905 48.761905 0 0 1-45.104761-67.291428l165.180952-402.432A48.761905 48.761905 0 0 1 419.401143 121.904762h247.027809z m-230.66819 73.142857l-145.188572 353.694476h209.700572l-44.568381 221.232762 255.439238-316.464762H521.99619L629.833143 195.047619h-194.072381z" /></svg>