<?xml version="1.0" standalone="no"?><!DOCTYPE svg PUBLIC "-//W3C//DTD SVG 1.1//EN" "http://www.w3.org/Graphics/SVG/1.1/DTD/svg11.dtd"><svg class="icon" width="64px" height="64.00px" viewBox="0 0 1024 1024" version="1.1" xmlns="http://www.w3.org/2000/svg"><path fill="#ffffff" d="M571.1 73.3c-235.7 0-426.7 191-426.7 426.7H2.2l189.7 189.7L381.4 500H239.2c0-183.4 148.4-331.9 331.9-331.9S903 316.6 903 500 754.6 831.9 571.1 831.9c-71.5 0-138-23.2-192.4-61.7l-67.4 68.2c72 55 162.1 88.3 259.8 88.3 235.7 0 426.7-191 426.7-426.7S806.8 73.3 571.1 73.3zM665.9 500c0-52.1-42.7-94.8-94.8-94.8s-94.8 42.7-94.8 94.8 42.7 94.8 94.8 94.8 94.8-42.7 94.8-94.8z" /></svg>