<?xml version="1.0" standalone="no"?><!DOCTYPE svg PUBLIC "-//W3C//DTD SVG 1.1//EN" "http://www.w3.org/Graphics/SVG/1.1/DTD/svg11.dtd"><svg class="icon" width="64px" height="64.00px" viewBox="0 0 1024 1024" version="1.1" xmlns="http://www.w3.org/2000/svg"><path fill="#ffffff" d="M768 128a128 128 0 0 1 128 128v512a128 128 0 0 1-128 128H256a128 128 0 0 1-128-128V256a128 128 0 0 1 128-128h512z m0 85.333333H256a42.666667 42.666667 0 0 0-42.368 37.674667L213.333333 256v512a42.666667 42.666667 0 0 0 37.674667 42.368L256 810.666667h512a42.666667 42.666667 0 0 0 42.368-37.674667L810.666667 768V256a42.666667 42.666667 0 0 0-37.674667-42.368L768 213.333333z m-213.333333 85.333334a42.666667 42.666667 0 0 1 0 85.333333H341.333333a42.666667 42.666667 0 1 1 0-85.333333h213.333334z"  fill-opacity=".87" /></svg>